<?xml version="1.0" encoding="UTF-8"?>
<svg width="33px" height="33px" viewBox="0 0 33 33" version="1.1" xmlns="http://www.w3.org/2000/svg" xmlns:xlink="http://www.w3.org/1999/xlink">
    <!-- Generator: Sketch 52.3 (67297) - http://www.bohemiancoding.com/sketch -->
    <title>@1xic/bankcall_g copy</title>
    <desc>Created with Sketch.</desc>
    <g id="ic/bankcall_g-copy" stroke="none" stroke-width="1" fill="none" fill-rule="evenodd">
        <g id="Group-5" transform="translate(6.000000, 4.000000)" fill="#FFFFFF" fill-rule="nonzero">
            <path d="M4.9414352,2.67489712 C6.14165011,5.26489399 6.74175757,7.34354574 6.74175757,8.91085238 C6.74175757,8.91085238 6.79995525,9.54140045 5.22750774,10.2227159 C5.22750774,10.2227159 4.09602159,11.0422219 5.8417346,13.2890657 C7.00554328,14.7869616 8.22640639,16.1218282 9.50432393,17.2936655 C11.0527735,18.6815367 12.080034,18.9687022 12.5861054,18.1551621 C13.3452125,16.934852 13.1393798,16.6725825 14.3551881,16.6725825 C15.165727,16.6725825 16.8991828,17.2845446 19.5555556,18.5084687 C19.5422278,21.5971905 18.3148434,23.4178752 15.8734024,23.9705226 C13.4319613,24.5231699 10.088072,22.8637363 5.8417346,18.9922216 C2.1635427,15.3707004 0.221983888,11.7818194 0.0170581549,8.22557879 C-0.187867578,4.66933812 1.45359144,2.8191109 4.9414352,2.67489712 Z" id="Path-10"></path>
            <path d="M11.4020335,1.04423712 C11.140288,0.996851457 10.9632096,0.726273783 11.0065178,0.439884971 C11.049826,0.153496159 11.2971209,-0.0402541744 11.5588663,0.00713148935 C17.9900242,1.17141032 21.897947,5.44779877 23.2130606,12.747126 C23.264373,13.0319274 23.0949594,13.3083179 22.8346648,13.3644614 C22.5743701,13.4206049 22.3217626,13.235241 22.2704502,12.9504396 C21.0316919,6.07490996 17.4320776,2.13589943 11.4020335,1.04423712 Z" id="Path-11"></path>
            <path d="M11.4006342,5.02651006 C11.1424636,4.98282441 10.9656243,4.71899908 11.0056526,4.43723969 C11.0456809,4.1554803 11.2874189,3.96248341 11.5455895,4.00616906 C16.4007438,4.82772107 19.10555,7.78850361 19.553285,12.7956932 C19.5786599,13.079471 19.3884425,13.3319684 19.1284224,13.3596619 C18.8684023,13.3873553 18.6370439,13.1797579 18.611669,12.8959801 C18.2069383,8.36972382 15.8388344,5.7775083 11.4006342,5.02651006 Z" id="Path-14"></path>
            <path d="M11.3725941,8.99337832 C11.1256188,8.94340333 10.9621894,8.68238029 11.0075644,8.41036704 C11.0529393,8.1383538 11.2899361,7.95835623 11.5369114,8.00833122 C14.1439647,8.53586349 15.6270113,10.1563189 15.8862128,12.7951238 C15.9132214,13.0700854 15.7327331,13.3171002 15.4830808,13.3468469 C15.2334286,13.3765935 15.0091507,13.1778076 14.9821421,12.9028461 C14.7679232,10.7219871 13.5980201,9.44368903 11.3725941,8.99337832 Z" id="Path-15"></path>
        </g>
    </g>
</svg>